<svg aria-hidden="true" style="position: absolute; width: 0; height: 0; overflow: hidden;" version="1.1" xmlns="http://www.w3.org/2000/svg" xmlns:xlink="http://www.w3.org/1999/xlink">
<defs>
<symbol id="icon-ukraine" viewBox="0 0 20 32">
<path d="M9.005 30.888c-1.738-1.269-2.974-3.137-3.405-5.296l-0.009-0.055h-5.591v-23.117c2.991 1.443 5.153 4.6 5.388 7.876l0.845 6.493-0.407-0.045c-0.893 0-1.676 0.812-1.676 1.608 0 0.752 0.595 1.383 1.379 1.548l1.018 0.226c1.675-3.051 2.63-6.042 2.63-8.973 0-2.646-0.36-5.291-0.422-7.997 0-1.202 0.485-2.3 1.253-3.156 0.783 0.857 1.253 1.954 1.253 3.156 0 2.706-0.423 5.351-0.423 7.997 0 2.93 0.955 5.922 2.631 8.973l1.018-0.226c0.783-0.165 1.378-0.811 1.378-1.548 0-0.811-0.783-1.608-1.675-1.608l-0.423 0.060 0.845-6.493c0.423-3.277 2.398-6.448 5.388-7.876v23.117h-5.576c-0.422 2.18-1.613 4.148-3.414 5.35-0.423 0.286-0.783 0.632-1.018 1.098-0.22-0.466-0.58-0.812-0.987-1.112zM2.647 17.556c0.235-0.857 0.893-1.609 1.738-2.075l-0.658-5.35c-0.246-1.699-0.975-3.195-2.043-4.382l0.007 0.008v11.783h0.956v0.015zM5.466 23.929c0-0.812 0.125-1.548 0.298-2.3l-0.784-0.18c-1.143-0.346-2.036-1.203-2.333-2.3h-0.957v4.78h3.775zM9.178 23.929c0-0.977-0.783-1.834-1.801-1.954-0.173 0.63-0.298 1.262-0.298 1.954h2.099zM9.178 25.552h-1.864c0.298 1.262 0.955 2.42 1.864 3.397v-3.397zM11.808 20.547c-0.72-1.263-1.377-2.585-1.8-3.968-0.423 1.383-1.080 2.705-1.801 3.968 0.72 0.165 1.315 0.631 1.8 1.157 0.486-0.526 1.082-0.992 1.802-1.157zM12.952 23.929c0-0.692-0.125-1.323-0.297-1.954-1.018 0.12-1.801 0.977-1.801 1.954h2.098zM12.717 25.552h-1.863v3.397c0.908-0.992 1.566-2.135 1.863-3.397zM18.34 23.929v-4.78h-0.956c-0.297 1.097-1.206 1.954-2.333 2.3l-0.783 0.18c0.172 0.752 0.297 1.488 0.297 2.3h3.775zM18.34 17.556v-11.8c-1.080 1.203-1.864 2.706-2.036 4.375l-0.658 5.35c0.846 0.466 1.504 1.203 1.738 2.075h0.956z"></path>
</symbol>
<symbol id="icon-bag" viewBox="0 0 32 32">
<path d="M25.333 9.333h-4v-1.333c0-2.945-2.388-5.333-5.333-5.333s-5.333 2.388-5.333 5.333v0 1.333h-4c-0 0-0.001 0-0.002 0-0.736 0-1.333 0.597-1.333 1.333 0 0.001 0 0.001 0 0.002v-0 14.666c0 2.209 1.791 4 4 4v0h13.334c2.209 0 4-1.791 4-4v0-14.666c0-0 0-0.001 0-0.002 0-0.736-0.597-1.333-1.333-1.333-0.001 0-0.001 0-0.002 0h0zM13.333 8c0-1.473 1.194-2.667 2.667-2.667s2.667 1.194 2.667 2.667v1.333h-5.334v-1.333zM24 25.333c0 0 0 0.001 0 0.002 0 0.736-0.597 1.333-1.333 1.333h-13.334c-0.736 0-1.333-0.597-1.333-1.333 0-0.001 0-0.001 0-0.002v0-13.333h2.667v1.333c0 0.736 0.597 1.333 1.333 1.333s1.333-0.597 1.333-1.333v0-1.333h5.334v1.333c0.036 0.708 0.619 1.269 1.333 1.269s1.297-0.561 1.333-1.266l0-0.003v-1.333h2.667v13.333z"></path>
</symbol>
<symbol id="icon-book" viewBox="0 0 32 32">
<path d="M31.229 8.466c-0.593-0.317-1.3-0.625-2.032-0.878l-0.107-0.032v17.947c-1.658-0.612-3.36-0.925-5.091-0.925-2.764 0-5.498 0.805-8 2.357v-18.052c-2.356-1.388-5.076-2.208-8-2.208-2.604 0-5.062 0.656-7.229 1.79-0.48 0.24-0.771 0.761-0.771 1.313v18.022c0 0.865 0.684 1.476 1.455 1.476 0.233 0 0.465-0.059 0.698-0.179 1.76-0.94 3.738-1.536 5.847-1.536 3.011 0 5.789 1.223 8 2.984 2.211-1.76 4.989-2.984 8-2.984 2.109 0 4.087 0.596 5.847 1.551 0.233 0.12 0.465 0.179 0.698 0.179 0.756 0 1.455-0.612 1.455-1.477v-18.036c0-0.552-0.291-1.074-0.771-1.313zM13.091 25.503c-1.658-0.612-3.36-0.925-5.091-0.925s-3.433 0.313-5.091 0.925v-14.784c1.493-0.669 3.237-1.059 5.071-1.059 0.007 0 0.014 0 0.021 0h-0.001c1.745 0 3.476 0.373 5.091 1.074v14.769zM26.182 1.455l-7.273 7.459v14.172l7.273-6.713v-14.919z"></path>
</symbol>
<symbol id="icon-logo-text" viewBox="0 0 176 32">
<path d="M22.176 8.533c0-4.731-3.497-7.406-9.545-7.406h-12.631v29.417h13.33c6.089 0 9.998-2.921 9.998-8.599 0-4.402-2.633-6.665-5.719-7.2v-0.082c2.427-0.823 4.567-2.51 4.567-6.13zM4.896 13.305v-8.023h7.858c2.921 0 4.526 1.44 4.526 4.032s-1.317 3.991-4.814 3.991h-7.57zM4.896 16.967h8.599c3.086 0 4.937 1.687 4.937 4.69 0 2.757-1.275 4.731-5.472 4.731h-8.064v-9.422zM35.89 31.161c-6.583 0-10.574-4.567-10.574-11.109s3.991-11.109 10.574-11.109c6.583 0 10.574 4.567 10.574 11.109s-3.991 11.109-10.574 11.109zM35.89 27.623c4.114 0 6.254-3.25 6.254-7.57 0-4.361-2.139-7.57-6.254-7.57s-6.254 3.209-6.254 7.57c0 4.32 2.139 7.57 6.254 7.57zM58.912 31.161c-6.583 0-10.574-4.567-10.574-11.109s3.991-11.109 10.574-11.109c6.583 0 10.574 4.567 10.574 11.109s-3.991 11.109-10.574 11.109zM58.912 27.623c4.114 0 6.254-3.25 6.254-7.57 0-4.361-2.139-7.57-6.254-7.57s-6.254 3.209-6.254 7.57c0 4.32 2.139 7.57 6.254 7.57zM72.471 1.127v29.417h4.32v-7.611l2.921-2.757 6.624 10.368h5.184l-8.846-13.207 7.982-7.817h-5.307l-8.558 8.434v-16.827h-4.32zM101.934 17.831c-3.045-0.699-5.39-0.864-5.39-3.003 0-1.481 1.399-2.469 3.991-2.469 3.374 0 4.197 1.687 4.485 3.333h4.197c-0.288-3.662-3.003-6.747-8.722-6.747-5.266 0-8.311 2.757-8.311 6.213 0 4.773 4.526 5.431 7.858 6.213 3.086 0.741 5.595 0.946 5.595 3.579 0 1.317-1.275 2.798-4.279 2.798-4.443 0-5.431-1.934-5.637-4.197h-4.197c0.206 4.443 3.127 7.611 9.915 7.611 5.102 0 8.558-2.51 8.558-6.542 0-5.019-4.197-5.883-8.064-6.789zM124.123 8.944c-3.538 0-5.719 1.646-6.83 3.291h-0.082v-11.109h-4.32v29.417h4.32v-12.795c0-3.127 2.263-5.143 5.431-5.143 3.003 0 4.197 1.81 4.197 4.649v13.289h4.361v-14.523c0-4.814-3.086-7.077-7.077-7.077zM144.448 27.623c-3.826 0-6.089-2.921-6.089-6.459h16.128c0-7.488-3.333-12.219-10.121-12.219-6.336 0-10.327 4.279-10.327 11.109 0 6.583 3.991 11.109 10.533 11.109 5.39 0 8.517-3.045 9.586-7.035h-4.32c-0.37 1.275-1.81 3.497-5.39 3.497zM144.366 12.359c3.497 0 5.801 2.345 5.801 5.595h-11.808c0-3.25 2.51-5.595 6.007-5.595zM157.531 1.127v29.417h4.361v-29.417h-4.361zM176.002 4.665v-3.538c-0.864-0.179-1.858-0.284-2.877-0.288h-0.003c-3.456 0-5.349 1.563-5.349 6.007v2.674h-3.003v3.538h3.003v17.486h4.361v-17.486h3.867v-3.538h-3.865v-2.304c0-2.386 1.070-2.674 3.867-2.551z"></path>
</symbol>
<symbol id="icon-close" viewBox="0 0 32 32">
<path d="M3.556 0.889c-0.736 0.001-1.402 0.299-1.884 0.782l-0 0c-0.482 0.482-0.78 1.149-0.78 1.884s0.298 1.402 0.78 1.884l10.556 10.56-10.56 10.56c-0.482 0.482-0.78 1.149-0.78 1.884s0.298 1.402 0.78 1.884l-0-0c0.483 0.483 1.15 0.782 1.886 0.782s1.404-0.299 1.886-0.782v0l10.56-10.556 10.56 10.56c0.482 0.482 1.149 0.78 1.884 0.78s1.402-0.298 1.884-0.78l-0 0c0.483-0.483 0.782-1.15 0.782-1.886s-0.299-1.404-0.782-1.886v0l-10.556-10.56 10.56-10.56c0.482-0.482 0.78-1.149 0.78-1.884s-0.298-1.402-0.78-1.884l0 0c-0.483-0.483-1.15-0.782-1.886-0.782s-1.404 0.299-1.886 0.782v0l-10.56 10.556-10.56-10.558c-0.482-0.482-1.149-0.78-1.884-0.78h-0z"></path>
</symbol>
<symbol id="icon-down" viewBox="0 0 32 32">
<path d="M14.512 18.933c0.38 0.382 0.906 0.619 1.487 0.619s1.107-0.237 1.487-0.619l0-0 9.598-9.616c0.38-0.382 0.906-0.619 1.487-0.619 1.157 0 2.095 0.938 2.095 2.095 0 0.576-0.232 1.098-0.609 1.477l-9.616 9.618c-1.137 1.136-2.708 1.839-4.442 1.839s-3.305-0.703-4.442-1.839l-9.614-9.618c-0.346-0.373-0.558-0.873-0.558-1.423 0-1.158 0.938-2.096 2.096-2.096 0.555 0 1.059 0.216 1.434 0.567l-0.001-0.001 9.6 9.616z"></path>
</symbol>
<symbol id="icon-email" viewBox="0 0 32 32">
<path d="M8.534 3.281c-2.412 0-3.791-0.063-5.099 0.603-1.047 0.541-1.879 1.374-2.406 2.39l-0.015 0.031c-0.667 1.308-0.603 2.688-0.603 5.102v9.189c0 2.412-0.064 3.791 0.603 5.099 0.541 1.047 1.374 1.88 2.39 2.406l0.031 0.015c1.308 0.667 2.686 0.603 5.099 0.603h14.932c2.412 0 3.791 0.064 5.099-0.603 1.047-0.541 1.88-1.374 2.406-2.39l0.015-0.031c0.666-1.308 0.603-2.687 0.603-5.099v-9.189c0-0.943-0.010-1.632-0.038-2.315 0.019-0.080 0.029-0.172 0.029-0.267 0-0.113-0.015-0.222-0.044-0.326l0.002 0.009c-0.065-0.833-0.212-1.534-0.554-2.202-0.541-1.047-1.373-1.879-2.389-2.406l-0.031-0.015c-1.308-0.666-2.686-0.603-5.099-0.603zM8.534 5.743h14.932c2.412 0 3.45 0.064 3.984 0.336 0.578 0.295 1.049 0.766 1.344 1.344 0.064 0.126 0.037 0.745 0.079 0.938l-10.942 7.659c-0.95 0.665-1.329 0.889-1.535 0.939-0.119 0.031-0.256 0.049-0.396 0.049s-0.277-0.018-0.408-0.051l0.011 0.002c-0.207-0.050-0.582-0.274-1.531-0.939l-10.946-7.659c0.043-0.193 0.015-0.812 0.079-0.938 0.302-0.581 0.766-1.043 1.332-1.335l0.017-0.008c0.534-0.271 1.568-0.336 3.982-0.336zM2.89 11.198l7.035 4.926-6.903 6.235c-0.037-0.603-0.149-0.694-0.149-1.762v-9.189c0-0.127 0.016-0.091 0.017-0.209zM29.11 11.198c0 0.118 0.017 0.082 0.017 0.209v9.189c0 1.068-0.111 1.158-0.149 1.762l-6.905-6.235zM20.007 17.569l8.298 7.495c-0.263 0.314-0.487 0.668-0.855 0.857-0.534 0.271-1.57 0.336-3.984 0.336h-14.932c-2.412 0-3.446-0.064-3.982-0.336-0.368-0.188-0.592-0.542-0.855-0.854l8.298-7.495 0.665 0.464c0.948 0.665 1.521 1.104 2.347 1.311 0.652 0.162 1.334 0.162 1.986 0 0.826-0.207 1.398-0.646 2.348-1.311z"></path>
</symbol>
<symbol id="icon-lock" viewBox="0 0 32 32">
<path d="M16 0.667c-5.016 0-9.112 4.096-9.112 9.112v3.377c-1.127 0.051-2.097 0.177-2.945 0.609-1.134 0.587-2.036 1.488-2.607 2.589l-0.016 0.033c-0.72 1.417-0.653 2.909-0.653 5.524v0.621c0 2.613-0.069 4.107 0.653 5.524 0.586 1.134 1.488 2.036 2.589 2.607l0.033 0.016c1.417 0.723 2.909 0.653 5.524 0.653h13.067c2.613 0 4.107 0.069 5.524-0.653 1.134-0.586 2.036-1.488 2.607-2.589l0.016-0.033c0.723-1.417 0.653-2.909 0.653-5.524v-0.621c0-2.613 0.069-4.107-0.653-5.524-0.587-1.134-1.488-2.036-2.589-2.607l-0.033-0.016c-0.848-0.432-1.819-0.56-2.945-0.609v-3.377c0-5.016-4.096-9.112-9.112-9.112zM16 3.333c0.006-0 0.012-0 0.019-0 3.549 0 6.427 2.877 6.427 6.427 0 0.007 0 0.013-0 0.020v-0.001 3.333h-12.891v-3.333c-0-0.006-0-0.012-0-0.019 0-3.549 2.877-6.427 6.427-6.427 0.007 0 0.013 0 0.020 0h-0.001zM9.467 15.779h13.067c2.613 0 3.733 0.067 4.313 0.361 0.63 0.326 1.131 0.828 1.447 1.44l0.009 0.019c0.293 0.579 0.364 1.699 0.364 4.313v0.621c0 2.613-0.069 3.733-0.364 4.313-0.32 0.627-0.829 1.136-1.456 1.456-0.579 0.293-1.699 0.364-4.313 0.364h-13.067c-2.613 0-3.733-0.069-4.313-0.364-0.63-0.325-1.131-0.826-1.447-1.437l-0.009-0.019c-0.293-0.58-0.364-1.7-0.364-4.313v-0.621c0-2.613 0.069-3.733 0.364-4.313 0.325-0.631 0.826-1.132 1.437-1.45l0.019-0.009c0.579-0.293 1.699-0.361 4.313-0.361z"></path>
</symbol>
<symbol id="icon-logo" viewBox="0 0 32 32">
<path fill="#f6f6f6" style="fill: var(--color1, #f6f6f6)" d="M0 0l16.343 16.172 15.657 15.828v-32h-32z"></path>
<path fill="#f6f6f6" style="fill: var(--color1, #f6f6f6)" d="M4.457 4.228l11.943 11.829 11.257 11.485h-23.2v-23.315z"></path>
<path fill="#4f2ee8" style="fill: var(--color2, #4f2ee8)" d="M27.733 27.619l-11.943-11.829-11.257-11.485h23.2v23.315z"></path>
<path fill="#4f2ee8" style="fill: var(--color2, #4f2ee8)" d="M9.257 9.028l13.6 13.601h-13.6v-13.6z"></path>
<path fill="#f6f6f6" style="fill: var(--color1, #f6f6f6)" d="M9.257 9.028l13.6 13.601v-13.6h-13.6z"></path>
</symbol>
<symbol id="icon-menu" viewBox="0 0 32 32">
<path d="M4 12.19c-0.631 0-1.143 0.512-1.143 1.143v0c0 0.631 0.512 1.143 1.143 1.143v0h18.667c0.631 0 1.143-0.512 1.143-1.143v0c0-0.631-0.512-1.143-1.143-1.143v0zM4 6.857c-0.631 0-1.143 0.512-1.143 1.143v0c0 0.631 0.512 1.143 1.143 1.143v0h24c0.631 0 1.143-0.512 1.143-1.143v0c0-0.631-0.512-1.143-1.143-1.143v0zM4 17.525c-0.631 0-1.143 0.512-1.143 1.143v0c0 0.631 0.512 1.143 1.143 1.143v0h24c0.631 0 1.143-0.512 1.143-1.143v0c0-0.631-0.512-1.143-1.143-1.143v0zM4 22.857c-0.631 0-1.143 0.512-1.143 1.143v0c0 0.631 0.512 1.143 1.143 1.143v0h18.667c0.631 0 1.143-0.512 1.143-1.143v0c0-0.631-0.512-1.143-1.143-1.143v0z"></path>
</symbol>
<symbol id="icon-right" viewBox="0 0 32 32">
<path d="M18.666 6.4c-0.442 0-0.842 0.179-1.131 0.469v0c-0.289 0.29-0.468 0.689-0.468 1.131s0.179 0.842 0.468 1.131l5.269 5.269h-17.469c-0.884 0-1.6 0.716-1.6 1.6v0c0 0.884 0.716 1.6 1.6 1.6v0h17.469l-5.269 5.269c-0.289 0.29-0.468 0.689-0.468 1.131s0.179 0.842 0.468 1.131v0c0.29 0.289 0.689 0.468 1.131 0.468s0.842-0.179 1.131-0.468l8-8c0.193-0.192 0.338-0.434 0.413-0.704l0.003-0.011c0.004-0.043 0.006-0.093 0.006-0.144s-0.002-0.101-0.007-0.15l0 0.006c0.015-0.032 0.033-0.074 0.049-0.117l0.004-0.011c-0.011-0.1-0.030-0.19-0.056-0.277l0.003 0.011c-0.011-0.087-0.026-0.165-0.047-0.24l0.003 0.011c-0.077-0.248-0.205-0.462-0.372-0.637l0.001 0.001-8-8c-0.289-0.29-0.689-0.469-1.131-0.469h-0z"></path>
</symbol>
<symbol id="icon-trash" viewBox="0 0 32 32">
<path d="M11.6 1.2c-0.884 0-1.6 0.716-1.6 1.6v0c0 0.884 0.716 1.6 1.6 1.6v0h8.8c0.884 0 1.6-0.716 1.6-1.6v0c0-0.884-0.716-1.6-1.6-1.6v0zM2.8 5.6c-0.884 0-1.6 0.716-1.6 1.6v0c0 0.884 0.716 1.6 1.6 1.6v0h1.437l0.928 13.934c0.155 2.315 0.174 3.693 0.938 5.034 0.602 1.054 1.507 1.904 2.597 2.432 1.39 0.672 2.768 0.6 5.088 0.6h4.426c2.32 0 3.698 0.074 5.088-0.6 1.101-0.543 1.989-1.377 2.581-2.403l0.015-0.029c0.763-1.341 0.784-2.72 0.936-5.034l0.928-13.934h1.438c0.884 0 1.6-0.716 1.6-1.6v0c0-0.884-0.716-1.6-1.6-1.6v0zM7.443 8.8h17.114l-0.917 13.722c-0.154 2.315-0.288 3.253-0.525 3.666-0.28 0.491-0.704 0.885-1.213 1.131-0.427 0.208-1.37 0.282-3.69 0.282h-4.426c-2.32 0-3.262-0.074-3.69-0.282-0.514-0.252-0.929-0.64-1.206-1.118l-0.007-0.013c-0.235-0.413-0.371-1.35-0.525-3.664zM13.066 12.2c-0.884 0-1.6 0.716-1.6 1.6v0 7.334c0 0.884 0.716 1.6 1.6 1.6v0c0.884 0 1.6-0.716 1.6-1.6v0-7.334c0-0.884-0.716-1.6-1.6-1.6v0zM18.934 12.2c-0.884 0-1.6 0.716-1.6 1.6v0 7.334c0 0.884 0.716 1.6 1.6 1.6v0c0.884 0 1.6-0.716 1.6-1.6v0-7.334c0-0.884-0.716-1.6-1.6-1.6v0z"></path>
</symbol>
<symbol id="icon-up" viewBox="0 0 32 32">
<path d="M0.632 21.389l14.147-14.189c0.168-0.168 0.352-0.286 0.547-0.357 0.197-0.071 0.408-0.106 0.632-0.106 0.226 0 0.436 0.035 0.632 0.106 0.215 0.081 0.398 0.202 0.547 0.357l0 0 14.189 14.189c0.392 0.392 0.589 0.884 0.589 1.474s-0.211 1.095-0.632 1.516c-0.369 0.389-0.89 0.632-1.468 0.632-0.002 0-0.004 0-0.006 0h0c-0.002 0-0.004 0-0.006 0-0.578 0-1.099-0.242-1.467-0.631l-0.001-0.001-12.379-12.379-12.379 12.379c-0.392 0.392-0.876 0.589-1.452 0.589s-1.075-0.211-1.496-0.632c-0.389-0.369-0.632-0.89-0.632-1.468 0-0.002 0-0.004 0-0.006v0c0-0.002 0-0.004 0-0.006 0-0.578 0.242-1.099 0.631-1.467l0.001-0.001z"></path>
</symbol>
<symbol id="icon-user" viewBox="0 0 32 32">
<path d="M4.741 30.964c0.112-6.132 5.11-11.060 11.259-11.060s11.146 4.928 11.258 11.050l0 0.011h-22.517zM16 18.297c-0.001 0-0.001 0-0.002 0-4.663 0-8.443-3.78-8.443-8.443 0-0.001 0-0.001 0-0.002v0c0-0.001 0-0.001 0-0.002 0-4.663 3.78-8.443 8.443-8.443 0.001 0 0.001 0 0.002 0h-0c0.001 0 0.001 0 0.002 0 4.663 0 8.443 3.78 8.443 8.443 0 0.001 0 0.001 0 0.002v-0c0 0.001 0 0.001 0 0.002 0 4.663-3.78 8.443-8.443 8.443-0.001 0-0.001 0-0.002 0h0z"></path>
</symbol>
<symbol id="arrow-up" viewBox="0 0 24 24">
<path d="M143.998 627.2l358.402-359.467c4.267-4.267 8.887-7.282 13.862-9.045 4.979-1.792 10.313-2.688 16-2.688 5.692 0 11.025 0.896 16 2.688 4.979 1.763 9.604 4.779 13.871 9.045l359.467 359.467c9.954 9.954 14.933 22.4 14.933 37.333s-5.333 27.733-16 38.4c-10.667 10.667-23.113 16-37.333 16-14.225 0-26.667-5.333-37.333-16l-313.604-313.6-313.598 313.6c-9.956 9.954-22.215 14.933-36.779 14.933-14.592 0-27.221-5.333-37.888-16s-16-23.113-16-37.333c0-14.221 5.333-26.667 16-37.333z"></path>
</symbol>
</defs>
</svg>
