<svg aria-hidden="true" style="position: absolute; width: 0; height: 0; overflow: hidden;" version="1.1" xmlns="http://www.w3.org/2000/svg" xmlns:xlink="http://www.w3.org/1999/xlink">
<defs>
<symbol id="icon-down" viewBox="0 0 56 32">
<path d="M25.395 21.134c0.341 0.344 0.746 0.616 1.193 0.803s0.926 0.282 1.41 0.282 0.963-0.096 1.41-0.282c0.447-0.186 0.852-0.459 1.193-0.803l16.794-16.83c0.341-0.344 0.746-0.616 1.193-0.803s0.926-0.282 1.41-0.282c0.484 0 0.963 0.096 1.41 0.282s0.852 0.459 1.193 0.803c0.683 0.687 1.066 1.616 1.066 2.585s-0.383 1.898-1.066 2.585l-16.83 16.83c-2.063 2.060-4.858 3.217-7.773 3.217s-5.711-1.157-7.773-3.217l-16.83-16.83c-0.677-0.683-1.059-1.605-1.063-2.567-0.003-0.483 0.090-0.961 0.272-1.408s0.451-0.853 0.791-1.196c0.341-0.344 0.746-0.616 1.193-0.803s0.926-0.282 1.41-0.282 0.963 0.096 1.41 0.282c0.447 0.186 0.852 0.459 1.193 0.803l16.793 16.83z"></path>
</symbol>
<symbol id="icon-logo" viewBox="0 0 125 32">
<path fill="#f6f6f6" style="fill: var(--color1, #f6f6f6)" d="M0 2.286l14.008 13.862 13.421 13.567v-27.429h-27.429z"></path>
<path fill="#f6f6f6" style="fill: var(--color1, #f6f6f6)" d="M3.821 5.91l10.237 10.139 9.649 9.845h-19.886v-19.984z"></path>
<path fill="#4f2ee8" style="fill: var(--color2, #4f2ee8)" d="M23.771 25.959l-10.237-10.139-9.649-9.845h19.886v19.984z"></path>
<path fill="#4f2ee8" style="fill: var(--color2, #4f2ee8)" d="M7.935 10.024l11.657 11.658h-11.657v-11.657z"></path>
<path fill="#f6f6f6" style="fill: var(--color1, #f6f6f6)" d="M7.935 10.024l11.657 11.658v-11.657h-11.657z"></path>
<path fill="#000" style="fill: var(--color3, #000)" d="M47.659 12.266c0-2.366-1.749-3.703-4.773-3.703h-6.315v14.709h6.665c3.045 0 4.999-1.461 4.999-4.299 0-2.201-1.317-3.333-2.859-3.6v-0.041c1.214-0.411 2.283-1.255 2.283-3.065zM39.019 14.653v-4.011h3.929c1.461 0 2.263 0.72 2.263 2.016s-0.658 1.995-2.407 1.995h-3.785zM39.019 16.483h4.299c1.543 0 2.469 0.843 2.469 2.345 0 1.378-0.638 2.366-2.736 2.366h-4.032v-4.711zM54.517 23.581c-3.291 0-5.287-2.283-5.287-5.554s1.995-5.554 5.287-5.554c3.291 0 5.287 2.283 5.287 5.554s-1.995 5.554-5.287 5.554zM54.517 21.811c2.057 0 3.127-1.625 3.127-3.785 0-2.181-1.070-3.785-3.127-3.785s-3.127 1.605-3.127 3.785c0 2.16 1.070 3.785 3.127 3.785zM66.027 23.581c-3.291 0-5.287-2.283-5.287-5.554s1.995-5.554 5.287-5.554c3.291 0 5.287 2.283 5.287 5.554s-1.995 5.554-5.287 5.554zM66.027 21.811c2.057 0 3.127-1.625 3.127-3.785 0-2.181-1.070-3.785-3.127-3.785s-3.127 1.605-3.127 3.785c0 2.16 1.070 3.785 3.127 3.785zM72.807 8.563v14.709h2.16v-3.806l1.461-1.378 3.312 5.184h2.592l-4.423-6.603 3.991-3.909h-2.654l-4.279 4.217v-8.414h-2.16zM87.538 16.915c-1.522-0.35-2.695-0.432-2.695-1.502 0-0.741 0.699-1.234 1.995-1.234 1.687 0 2.098 0.843 2.242 1.666h2.098c-0.144-1.831-1.502-3.374-4.361-3.374-2.633 0-4.155 1.378-4.155 3.106 0 2.386 2.263 2.715 3.929 3.106 1.543 0.37 2.798 0.473 2.798 1.79 0 0.658-0.638 1.399-2.139 1.399-2.222 0-2.715-0.967-2.818-2.098h-2.098c0.103 2.222 1.563 3.806 4.958 3.806 2.551 0 4.279-1.255 4.279-3.271 0-2.51-2.098-2.942-4.032-3.394zM98.633 12.472c-1.769 0-2.859 0.823-3.415 1.646h-0.041v-5.554h-2.16v14.709h2.16v-6.398c0-1.563 1.131-2.571 2.715-2.571 1.502 0 2.098 0.905 2.098 2.325v6.645h2.181v-7.262c0-2.407-1.543-3.538-3.538-3.538zM108.795 21.811c-1.913 0-3.045-1.461-3.045-3.23h8.064c0-3.744-1.666-6.11-5.061-6.11-3.168 0-5.163 2.139-5.163 5.554 0 3.291 1.995 5.554 5.266 5.554 2.695 0 4.258-1.522 4.793-3.518h-2.16c-0.185 0.638-0.905 1.749-2.695 1.749zM108.754 14.179c1.749 0 2.901 1.173 2.901 2.798h-5.904c0-1.625 1.255-2.798 3.003-2.798zM115.337 8.563v14.709h2.181v-14.709h-2.181zM124.573 10.333v-1.769c-0.432-0.090-0.929-0.142-1.438-0.144h-0.002c-1.728 0-2.674 0.782-2.674 3.003v1.337h-1.502v1.769h1.502v8.743h2.181v-8.743h1.934v-1.769h-1.934v-1.152c0-1.193 0.535-1.337 1.934-1.275z"></path>
</symbol>
<symbol id="icon-right" viewBox="0 0 32 32">
<path d="M18.666 6.4c-0.442 0-0.842 0.179-1.131 0.469v0c-0.289 0.29-0.468 0.689-0.468 1.131s0.179 0.842 0.468 1.131l5.269 5.269h-17.469c-0.884 0-1.6 0.716-1.6 1.6v0c0 0.884 0.716 1.6 1.6 1.6v0h17.469l-5.269 5.269c-0.289 0.29-0.468 0.689-0.468 1.131s0.179 0.842 0.468 1.131v0c0.29 0.289 0.689 0.468 1.131 0.468s0.842-0.179 1.131-0.468l8-8c0.193-0.192 0.338-0.434 0.413-0.704l0.003-0.011c0.004-0.043 0.006-0.093 0.006-0.144s-0.002-0.101-0.007-0.15l0 0.006c0.015-0.032 0.033-0.074 0.049-0.117l0.004-0.011c-0.012-0.1-0.030-0.19-0.056-0.277l0.003 0.011c-0.010-0.087-0.026-0.164-0.046-0.239l0.003 0.011c-0.077-0.249-0.205-0.463-0.372-0.638l0.001 0.001-8-8c-0.29-0.29-0.689-0.469-1.131-0.469v0z"></path>
</symbol>
<symbol id="icon-up" viewBox="0 0 55 32">
<path d="M1.091 25.309l24.436-24.509c0.291-0.291 0.606-0.496 0.945-0.617 0.339-0.122 0.703-0.183 1.091-0.183s0.752 0.061 1.091 0.183c0.339 0.12 0.655 0.326 0.945 0.617l24.509 24.509c0.679 0.679 1.018 1.527 1.018 2.545s-0.364 1.891-1.091 2.618c-0.727 0.727-1.576 1.091-2.545 1.091s-1.818-0.364-2.545-1.091l-21.382-21.382-21.382 21.382c-0.679 0.679-1.515 1.018-2.508 1.018-0.995 0-1.856-0.364-2.583-1.091s-1.091-1.576-1.091-2.545c0-0.97 0.364-1.818 1.091-2.545z"></path>
</symbol>
<symbol id="icon-close" viewBox="0 0 32 32">
<path d="M3.556 0.889c-0.736 0.001-1.402 0.299-1.884 0.782l-0 0c-0.482 0.482-0.78 1.149-0.78 1.884s0.298 1.402 0.78 1.884l10.556 10.56-10.56 10.56c-0.482 0.482-0.78 1.149-0.78 1.884s0.298 1.402 0.78 1.884l-0-0c0.483 0.483 1.15 0.782 1.886 0.782s1.404-0.299 1.886-0.782v0l10.56-10.556 10.56 10.56c0.482 0.482 1.149 0.78 1.884 0.78s1.402-0.298 1.884-0.78l-0 0c0.483-0.483 0.782-1.15 0.782-1.886s-0.299-1.404-0.782-1.886v0l-10.556-10.56 10.56-10.56c0.482-0.482 0.78-1.149 0.78-1.884s-0.298-1.402-0.78-1.884l0 0c-0.483-0.483-1.15-0.782-1.886-0.782s-1.404 0.299-1.886 0.782v0l-10.56 10.556-10.56-10.558c-0.482-0.482-1.149-0.78-1.884-0.78h-0z"></path>
</symbol>
<symbol id="icon-email" viewBox="0 0 32 32">
<path d="M8.534 3.281c-2.412 0-3.791-0.063-5.099 0.603-1.047 0.541-1.879 1.374-2.406 2.39l-0.015 0.031c-0.667 1.308-0.603 2.688-0.603 5.102v9.189c0 2.412-0.064 3.791 0.603 5.099 0.541 1.047 1.374 1.88 2.39 2.406l0.031 0.015c1.308 0.667 2.686 0.603 5.099 0.603h14.932c2.412 0 3.791 0.064 5.099-0.603 1.047-0.541 1.88-1.374 2.406-2.39l0.015-0.031c0.666-1.308 0.603-2.687 0.603-5.099v-9.189c0-0.943-0.010-1.632-0.038-2.315 0.019-0.080 0.029-0.172 0.029-0.267 0-0.113-0.015-0.222-0.044-0.326l0.002 0.009c-0.065-0.833-0.212-1.534-0.554-2.202-0.541-1.047-1.373-1.879-2.389-2.406l-0.031-0.015c-1.308-0.666-2.686-0.603-5.099-0.603zM8.534 5.743h14.932c2.412 0 3.45 0.064 3.984 0.336 0.578 0.295 1.049 0.766 1.344 1.344 0.064 0.126 0.037 0.745 0.079 0.938l-10.942 7.659c-0.95 0.665-1.329 0.889-1.535 0.939-0.119 0.031-0.256 0.049-0.396 0.049s-0.277-0.018-0.408-0.051l0.011 0.002c-0.207-0.050-0.582-0.274-1.531-0.939l-10.946-7.659c0.043-0.193 0.015-0.812 0.079-0.938 0.302-0.581 0.766-1.043 1.332-1.335l0.017-0.008c0.534-0.271 1.568-0.336 3.982-0.336zM2.89 11.198l7.035 4.926-6.903 6.235c-0.037-0.603-0.149-0.694-0.149-1.762v-9.189c0-0.127 0.016-0.091 0.017-0.209zM29.11 11.198c0 0.118 0.017 0.082 0.017 0.209v9.189c0 1.068-0.111 1.158-0.149 1.762l-6.905-6.235zM20.007 17.569l8.298 7.495c-0.263 0.314-0.487 0.668-0.855 0.857-0.534 0.271-1.57 0.336-3.984 0.336h-14.932c-2.412 0-3.446-0.064-3.982-0.336-0.368-0.188-0.592-0.542-0.855-0.854l8.298-7.495 0.665 0.464c0.948 0.665 1.521 1.104 2.347 1.311 0.652 0.162 1.334 0.162 1.986 0 0.826-0.207 1.398-0.646 2.348-1.311z"></path>
</symbol>
<symbol id="icon-lock" viewBox="0 0 32 32">
<path d="M16 0.667c-5.016 0-9.112 4.096-9.112 9.112v3.377c-1.127 0.051-2.097 0.177-2.945 0.609-1.134 0.587-2.036 1.488-2.607 2.589l-0.016 0.033c-0.72 1.417-0.653 2.909-0.653 5.524v0.621c0 2.613-0.069 4.107 0.653 5.524 0.586 1.134 1.488 2.036 2.589 2.607l0.033 0.016c1.417 0.723 2.909 0.653 5.524 0.653h13.067c2.613 0 4.107 0.069 5.524-0.653 1.134-0.586 2.036-1.488 2.607-2.589l0.016-0.033c0.723-1.417 0.653-2.909 0.653-5.524v-0.621c0-2.613 0.069-4.107-0.653-5.524-0.587-1.134-1.488-2.036-2.589-2.607l-0.033-0.016c-0.848-0.432-1.819-0.56-2.945-0.609v-3.377c0-5.016-4.096-9.112-9.112-9.112zM16 3.333c0.006-0 0.012-0 0.019-0 3.549 0 6.427 2.877 6.427 6.427 0 0.007 0 0.013-0 0.020v-0.001 3.333h-12.891v-3.333c-0-0.006-0-0.012-0-0.019 0-3.549 2.877-6.427 6.427-6.427 0.007 0 0.013 0 0.020 0h-0.001zM9.467 15.779h13.067c2.613 0 3.733 0.067 4.313 0.361 0.63 0.326 1.131 0.828 1.447 1.44l0.009 0.019c0.293 0.579 0.364 1.699 0.364 4.313v0.621c0 2.613-0.069 3.733-0.364 4.313-0.32 0.627-0.829 1.136-1.456 1.456-0.579 0.293-1.699 0.364-4.313 0.364h-13.067c-2.613 0-3.733-0.069-4.313-0.364-0.63-0.325-1.131-0.826-1.447-1.437l-0.009-0.019c-0.293-0.58-0.364-1.7-0.364-4.313v-0.621c0-2.613 0.069-3.733 0.364-4.313 0.325-0.631 0.826-1.132 1.437-1.45l0.019-0.009c0.579-0.293 1.699-0.361 4.313-0.361z"></path>
</symbol>
<symbol id="icon-menu" viewBox="0 0 32 32">
<path d="M4 12.19c-0.631 0-1.143 0.512-1.143 1.143v0c0 0.631 0.512 1.143 1.143 1.143v0h18.667c0.631 0 1.143-0.512 1.143-1.143v0c0-0.631-0.512-1.143-1.143-1.143v0zM4 6.857c-0.631 0-1.143 0.512-1.143 1.143v0c0 0.631 0.512 1.143 1.143 1.143v0h24c0.631 0 1.143-0.512 1.143-1.143v0c0-0.631-0.512-1.143-1.143-1.143v0zM4 17.525c-0.631 0-1.143 0.512-1.143 1.143v0c0 0.631 0.512 1.143 1.143 1.143v0h24c0.631 0 1.143-0.512 1.143-1.143v0c0-0.631-0.512-1.143-1.143-1.143v0zM4 22.857c-0.631 0-1.143 0.512-1.143 1.143v0c0 0.631 0.512 1.143 1.143 1.143v0h18.667c0.631 0 1.143-0.512 1.143-1.143v0c0-0.631-0.512-1.143-1.143-1.143v0z"></path>
</symbol>
<symbol id="icon-trash" viewBox="0 0 32 32">
<path d="M11.6 1.2c-0.884 0-1.6 0.716-1.6 1.6v0c0 0.884 0.716 1.6 1.6 1.6v0h8.8c0.884 0 1.6-0.716 1.6-1.6v0c0-0.884-0.716-1.6-1.6-1.6v0zM2.8 5.6c-0.884 0-1.6 0.716-1.6 1.6v0c0 0.884 0.716 1.6 1.6 1.6v0h1.437l0.928 13.934c0.155 2.315 0.174 3.693 0.938 5.034 0.602 1.054 1.507 1.904 2.597 2.432 1.39 0.672 2.768 0.6 5.088 0.6h4.426c2.32 0 3.698 0.074 5.088-0.6 1.101-0.543 1.989-1.377 2.581-2.403l0.015-0.029c0.763-1.341 0.784-2.72 0.936-5.034l0.928-13.934h1.438c0.884 0 1.6-0.716 1.6-1.6v0c0-0.884-0.716-1.6-1.6-1.6v0zM7.443 8.8h17.114l-0.917 13.722c-0.154 2.315-0.288 3.253-0.525 3.666-0.28 0.491-0.704 0.885-1.213 1.131-0.427 0.208-1.37 0.282-3.69 0.282h-4.426c-2.32 0-3.262-0.074-3.69-0.282-0.514-0.252-0.929-0.64-1.206-1.118l-0.007-0.013c-0.235-0.413-0.371-1.35-0.525-3.664zM13.066 12.2c-0.884 0-1.6 0.716-1.6 1.6v0 7.334c0 0.884 0.716 1.6 1.6 1.6v0c0.884 0 1.6-0.716 1.6-1.6v0-7.334c0-0.884-0.716-1.6-1.6-1.6v0zM18.934 12.2c-0.884 0-1.6 0.716-1.6 1.6v0 7.334c0 0.884 0.716 1.6 1.6 1.6v0c0.884 0 1.6-0.716 1.6-1.6v0-7.334c0-0.884-0.716-1.6-1.6-1.6v0z"></path>
</symbol>
<symbol id="icon-user" viewBox="0 0 32 32">
<path d="M4.741 30.964c0.112-6.132 5.11-11.060 11.259-11.060s11.146 4.928 11.258 11.050l0 0.011h-22.517zM16 18.297c-0.001 0-0.001 0-0.002 0-4.663 0-8.443-3.78-8.443-8.443 0-0.001 0-0.001 0-0.002v0c0-0.001 0-0.001 0-0.002 0-4.663 3.78-8.443 8.443-8.443 0.001 0 0.001 0 0.002 0h-0c0.001 0 0.001 0 0.002 0 4.663 0 8.443 3.78 8.443 8.443 0 0.001 0 0.001 0 0.002v-0c0 0.001 0 0.001 0 0.002 0 4.663-3.78 8.443-8.443 8.443-0.001 0-0.001 0-0.002 0h0z"></path>
</symbol>
</defs>
</svg>
