<svg aria-hidden="true" style="position: absolute; width: 0; height: 0; overflow: hidden;" version="1.1" xmlns="http://www.w3.org/2000/svg" xmlns:xlink="http://www.w3.org/1999/xlink">
<defs>
<symbol id="icon-bag" viewBox="0 0 32 32">
<path d="M25.333 9.333h-4v-1.333c0-2.945-2.388-5.333-5.333-5.333s-5.333 2.388-5.333 5.333v0 1.333h-4c-0 0-0.001 0-0.002 0-0.736 0-1.333 0.597-1.333 1.333 0 0.001 0 0.001 0 0.002v-0 14.666c0 2.209 1.791 4 4 4v0h13.334c2.209 0 4-1.791 4-4v0-14.666c0-0 0-0.001 0-0.002 0-0.736-0.597-1.333-1.333-1.333-0.001 0-0.001 0-0.002 0h0zM13.333 8c0-1.473 1.194-2.667 2.667-2.667s2.667 1.194 2.667 2.667v1.333h-5.334v-1.333zM24 25.333c0 0 0 0.001 0 0.002 0 0.736-0.597 1.333-1.333 1.333h-13.334c-0.736 0-1.333-0.597-1.333-1.333 0-0.001 0-0.001 0-0.002v0-13.333h2.667v1.333c0 0.736 0.597 1.333 1.333 1.333s1.333-0.597 1.333-1.333v0-1.333h5.334v1.333c0.036 0.708 0.619 1.269 1.333 1.269s1.297-0.561 1.333-1.266l0-0.003v-1.333h2.667v13.333z"></path>
</symbol>
<symbol id="icon-book" viewBox="0 0 32 32">
<path d="M31.229 8.466c-0.593-0.317-1.3-0.625-2.032-0.878l-0.107-0.032v17.947c-1.658-0.612-3.36-0.925-5.091-0.925-2.764 0-5.498 0.805-8 2.357v-18.052c-2.356-1.388-5.076-2.208-8-2.208-2.604 0-5.062 0.656-7.229 1.79-0.48 0.24-0.771 0.761-0.771 1.313v18.022c0 0.865 0.684 1.476 1.455 1.476 0.233 0 0.465-0.059 0.698-0.179 1.76-0.94 3.738-1.536 5.847-1.536 3.011 0 5.789 1.223 8 2.984 2.211-1.76 4.989-2.984 8-2.984 2.109 0 4.087 0.596 5.847 1.551 0.233 0.12 0.465 0.179 0.698 0.179 0.756 0 1.455-0.612 1.455-1.477v-18.036c0-0.552-0.291-1.074-0.771-1.313zM13.091 25.503c-1.658-0.612-3.36-0.925-5.091-0.925s-3.433 0.313-5.091 0.925v-14.784c1.493-0.669 3.237-1.059 5.071-1.059 0.007 0 0.014 0 0.021 0h-0.001c1.745 0 3.476 0.373 5.091 1.074v14.769zM26.182 1.455l-7.273 7.459v14.172l7.273-6.713v-14.919z"></path>
</symbol>
<symbol id="icon-logo-text" viewBox="0 0 32 32">
<path d="M4.032 14.642c0-0.86-0.636-1.347-1.735-1.347h-2.297v5.349h2.424c1.107 0 1.818-0.531 1.818-1.563 0-0.8-0.479-1.212-1.040-1.309v-0.015c0.441-0.15 0.83-0.456 0.83-1.115zM0.89 15.51v-1.459h1.429c0.531 0 0.823 0.262 0.823 0.733s-0.239 0.726-0.875 0.726h-1.376zM0.89 16.176h1.563c0.561 0 0.898 0.307 0.898 0.853 0 0.501-0.232 0.86-0.995 0.86h-1.466v-1.713zM6.526 18.757c-1.197 0-1.923-0.83-1.923-2.020s0.726-2.020 1.923-2.020c1.197 0 1.923 0.83 1.923 2.020s-0.726 2.020-1.923 2.020zM6.526 18.113c0.748 0 1.137-0.591 1.137-1.376 0-0.793-0.389-1.376-1.137-1.376s-1.137 0.583-1.137 1.376c0 0.785 0.389 1.376 1.137 1.376zM10.711 18.757c-1.197 0-1.922-0.83-1.922-2.020s0.726-2.020 1.922-2.020c1.197 0 1.922 0.83 1.922 2.020s-0.726 2.020-1.922 2.020zM10.711 18.113c0.748 0 1.137-0.591 1.137-1.376 0-0.793-0.389-1.376-1.137-1.376s-1.137 0.583-1.137 1.376c0 0.785 0.389 1.376 1.137 1.376zM13.177 13.296v5.349h0.785v-1.384l0.531-0.501 1.204 1.885h0.943l-1.608-2.401 1.451-1.421h-0.965l-1.556 1.534v-3.060h-0.785zM18.533 16.333c-0.554-0.127-0.98-0.157-0.98-0.546 0-0.269 0.254-0.449 0.726-0.449 0.613 0 0.763 0.307 0.815 0.606h0.763c-0.052-0.666-0.546-1.227-1.586-1.227-0.957 0-1.511 0.501-1.511 1.13 0 0.868 0.823 0.987 1.429 1.13 0.561 0.135 1.017 0.172 1.017 0.651 0 0.239-0.232 0.509-0.778 0.509-0.808 0-0.987-0.352-1.025-0.763h-0.763c0.037 0.808 0.569 1.384 1.803 1.384 0.928 0 1.556-0.456 1.556-1.189 0-0.913-0.763-1.070-1.466-1.234zM22.568 14.717c-0.643 0-1.040 0.299-1.242 0.598h-0.015v-2.020h-0.785v5.349h0.785v-2.326c0-0.569 0.411-0.935 0.987-0.935 0.546 0 0.763 0.329 0.763 0.845v2.416h0.793v-2.641c0-0.875-0.561-1.287-1.287-1.287zM26.263 18.113c-0.696 0-1.107-0.531-1.107-1.174h2.932c0-1.361-0.606-2.222-1.84-2.222-1.152 0-1.878 0.778-1.878 2.020 0 1.197 0.726 2.020 1.915 2.020 0.98 0 1.548-0.554 1.743-1.279h-0.785c-0.067 0.232-0.329 0.636-0.98 0.636zM26.248 15.338c0.636 0 1.055 0.426 1.055 1.017h-2.147c0-0.591 0.456-1.017 1.092-1.017zM28.642 13.296v5.349h0.793v-5.349h-0.793zM32 13.939v-0.643c-0.157-0.033-0.338-0.052-0.523-0.052h-0.001c-0.628 0-0.972 0.284-0.972 1.092v0.486h-0.546v0.643h0.546v3.179h0.793v-3.179h0.703v-0.643h-0.703v-0.419c0-0.434 0.195-0.486 0.703-0.464z"></path>
</symbol>
<symbol id="icon-close" viewBox="0 0 32 32">
<path d="M3.556 0.889c-0.736 0.001-1.402 0.299-1.884 0.782l-0 0c-0.482 0.482-0.78 1.149-0.78 1.884s0.298 1.402 0.78 1.884l10.556 10.56-10.56 10.56c-0.482 0.482-0.78 1.149-0.78 1.884s0.298 1.402 0.78 1.884l-0-0c0.483 0.483 1.15 0.782 1.886 0.782s1.404-0.299 1.886-0.782v0l10.56-10.556 10.56 10.56c0.482 0.482 1.149 0.78 1.884 0.78s1.402-0.298 1.884-0.78l-0 0c0.483-0.483 0.782-1.15 0.782-1.886s-0.299-1.404-0.782-1.886v0l-10.556-10.56 10.56-10.56c0.482-0.482 0.78-1.149 0.78-1.884s-0.298-1.402-0.78-1.884l0 0c-0.483-0.483-1.15-0.782-1.886-0.782s-1.404 0.299-1.886 0.782v0l-10.56 10.556-10.56-10.558c-0.482-0.482-1.149-0.78-1.884-0.78h-0z"></path>
</symbol>
<symbol id="icon-down" viewBox="0 0 32 32">
<path d="M14.512 18.933c0.38 0.382 0.906 0.619 1.487 0.619s1.107-0.237 1.487-0.619l0-0 9.598-9.616c0.38-0.382 0.906-0.619 1.487-0.619 1.157 0 2.095 0.938 2.095 2.095 0 0.576-0.232 1.098-0.609 1.477l-9.616 9.618c-1.137 1.136-2.708 1.839-4.442 1.839s-3.305-0.703-4.442-1.839l-9.614-9.618c-0.346-0.373-0.558-0.873-0.558-1.423 0-1.158 0.938-2.096 2.096-2.096 0.555 0 1.059 0.216 1.434 0.567l-0.001-0.001 9.6 9.616z"></path>
</symbol>
<symbol id="icon-email" viewBox="0 0 32 32">
<path d="M8.534 3.281c-2.412 0-3.791-0.063-5.099 0.603-1.047 0.541-1.879 1.374-2.406 2.39l-0.015 0.031c-0.667 1.308-0.603 2.688-0.603 5.102v9.189c0 2.412-0.064 3.791 0.603 5.099 0.541 1.047 1.374 1.88 2.39 2.406l0.031 0.015c1.308 0.667 2.686 0.603 5.099 0.603h14.932c2.412 0 3.791 0.064 5.099-0.603 1.047-0.541 1.88-1.374 2.406-2.39l0.015-0.031c0.666-1.308 0.603-2.687 0.603-5.099v-9.189c0-0.943-0.010-1.632-0.038-2.315 0.019-0.080 0.029-0.172 0.029-0.267 0-0.113-0.015-0.222-0.044-0.326l0.002 0.009c-0.065-0.833-0.212-1.534-0.554-2.202-0.541-1.047-1.373-1.879-2.389-2.406l-0.031-0.015c-1.308-0.666-2.686-0.603-5.099-0.603zM8.534 5.743h14.932c2.412 0 3.45 0.064 3.984 0.336 0.578 0.295 1.049 0.766 1.344 1.344 0.064 0.126 0.037 0.745 0.079 0.938l-10.942 7.659c-0.95 0.665-1.329 0.889-1.535 0.939-0.119 0.031-0.256 0.049-0.396 0.049s-0.277-0.018-0.408-0.051l0.011 0.002c-0.207-0.050-0.582-0.274-1.531-0.939l-10.946-7.659c0.043-0.193 0.015-0.812 0.079-0.938 0.302-0.581 0.766-1.043 1.332-1.335l0.017-0.008c0.534-0.271 1.568-0.336 3.982-0.336zM2.89 11.198l7.035 4.926-6.903 6.235c-0.037-0.603-0.149-0.694-0.149-1.762v-9.189c0-0.127 0.016-0.091 0.017-0.209zM29.11 11.198c0 0.118 0.017 0.082 0.017 0.209v9.189c0 1.068-0.111 1.158-0.149 1.762l-6.905-6.235zM20.007 17.569l8.298 7.495c-0.263 0.314-0.487 0.668-0.855 0.857-0.534 0.271-1.57 0.336-3.984 0.336h-14.932c-2.412 0-3.446-0.064-3.982-0.336-0.368-0.188-0.592-0.542-0.855-0.854l8.298-7.495 0.665 0.464c0.948 0.665 1.521 1.104 2.347 1.311 0.652 0.162 1.334 0.162 1.986 0 0.826-0.207 1.398-0.646 2.348-1.311z"></path>
</symbol>
<symbol id="icon-lock" viewBox="0 0 32 32">
<path d="M16 0.667c-5.016 0-9.112 4.096-9.112 9.112v3.377c-1.127 0.051-2.097 0.177-2.945 0.609-1.134 0.587-2.036 1.488-2.607 2.589l-0.016 0.033c-0.72 1.417-0.653 2.909-0.653 5.524v0.621c0 2.613-0.069 4.107 0.653 5.524 0.586 1.134 1.488 2.036 2.589 2.607l0.033 0.016c1.417 0.723 2.909 0.653 5.524 0.653h13.067c2.613 0 4.107 0.069 5.524-0.653 1.134-0.586 2.036-1.488 2.607-2.589l0.016-0.033c0.723-1.417 0.653-2.909 0.653-5.524v-0.621c0-2.613 0.069-4.107-0.653-5.524-0.587-1.134-1.488-2.036-2.589-2.607l-0.033-0.016c-0.848-0.432-1.819-0.56-2.945-0.609v-3.377c0-5.016-4.096-9.112-9.112-9.112zM16 3.333c0.006-0 0.012-0 0.019-0 3.549 0 6.427 2.877 6.427 6.427 0 0.007 0 0.013-0 0.020v-0.001 3.333h-12.891v-3.333c-0-0.006-0-0.012-0-0.019 0-3.549 2.877-6.427 6.427-6.427 0.007 0 0.013 0 0.020 0h-0.001zM9.467 15.779h13.067c2.613 0 3.733 0.067 4.313 0.361 0.63 0.326 1.131 0.828 1.447 1.44l0.009 0.019c0.293 0.579 0.364 1.699 0.364 4.313v0.621c0 2.613-0.069 3.733-0.364 4.313-0.32 0.627-0.829 1.136-1.456 1.456-0.579 0.293-1.699 0.364-4.313 0.364h-13.067c-2.613 0-3.733-0.069-4.313-0.364-0.63-0.325-1.131-0.826-1.447-1.437l-0.009-0.019c-0.293-0.58-0.364-1.7-0.364-4.313v-0.621c0-2.613 0.069-3.733 0.364-4.313 0.325-0.631 0.826-1.132 1.437-1.45l0.019-0.009c0.579-0.293 1.699-0.361 4.313-0.361z"></path>
</symbol>
<symbol id="icon-logo" viewBox="0 0 32 32">
<path fill="#f6f6f6" style="fill: var(--color1, #f6f6f6)" d="M0 0l16.343 16.172 15.657 15.828v-32h-32z"></path>
<path fill="#f6f6f6" style="fill: var(--color1, #f6f6f6)" d="M4.457 4.228l11.943 11.829 11.257 11.485h-23.2v-23.315z"></path>
<path fill="#4f2ee8" style="fill: var(--color2, #4f2ee8)" d="M27.733 27.619l-11.943-11.829-11.257-11.485h23.2v23.315z"></path>
<path fill="#4f2ee8" style="fill: var(--color2, #4f2ee8)" d="M9.257 9.028l13.6 13.601h-13.6v-13.6z"></path>
<path fill="#f6f6f6" style="fill: var(--color1, #f6f6f6)" d="M9.257 9.028l13.6 13.601v-13.6h-13.6z"></path>
</symbol>
<symbol id="icon-menu" viewBox="0 0 32 32">
<path d="M4 12.19c-0.631 0-1.143 0.512-1.143 1.143v0c0 0.631 0.512 1.143 1.143 1.143v0h18.667c0.631 0 1.143-0.512 1.143-1.143v0c0-0.631-0.512-1.143-1.143-1.143v0zM4 6.857c-0.631 0-1.143 0.512-1.143 1.143v0c0 0.631 0.512 1.143 1.143 1.143v0h24c0.631 0 1.143-0.512 1.143-1.143v0c0-0.631-0.512-1.143-1.143-1.143v0zM4 17.525c-0.631 0-1.143 0.512-1.143 1.143v0c0 0.631 0.512 1.143 1.143 1.143v0h24c0.631 0 1.143-0.512 1.143-1.143v0c0-0.631-0.512-1.143-1.143-1.143v0zM4 22.857c-0.631 0-1.143 0.512-1.143 1.143v0c0 0.631 0.512 1.143 1.143 1.143v0h18.667c0.631 0 1.143-0.512 1.143-1.143v0c0-0.631-0.512-1.143-1.143-1.143v0z"></path>
</symbol>
<symbol id="icon-right" viewBox="0 0 32 32">
<path d="M18.666 6.4c-0.442 0-0.842 0.179-1.131 0.469v0c-0.289 0.29-0.468 0.689-0.468 1.131s0.179 0.842 0.468 1.131l5.269 5.269h-17.469c-0.884 0-1.6 0.716-1.6 1.6v0c0 0.884 0.716 1.6 1.6 1.6v0h17.469l-5.269 5.269c-0.289 0.29-0.468 0.689-0.468 1.131s0.179 0.842 0.468 1.131v0c0.29 0.289 0.689 0.468 1.131 0.468s0.842-0.179 1.131-0.468l8-8c0.193-0.192 0.338-0.434 0.413-0.704l0.003-0.011c0.004-0.043 0.006-0.093 0.006-0.144s-0.002-0.101-0.007-0.15l0 0.006c0.015-0.032 0.033-0.074 0.049-0.117l0.004-0.011c-0.011-0.1-0.030-0.19-0.056-0.277l0.003 0.011c-0.011-0.087-0.026-0.165-0.047-0.24l0.003 0.011c-0.077-0.248-0.205-0.462-0.372-0.637l0.001 0.001-8-8c-0.289-0.29-0.689-0.469-1.131-0.469h-0z"></path>
</symbol>
<symbol id="icon-trash" viewBox="0 0 32 32">
<path d="M11.6 1.2c-0.884 0-1.6 0.716-1.6 1.6v0c0 0.884 0.716 1.6 1.6 1.6v0h8.8c0.884 0 1.6-0.716 1.6-1.6v0c0-0.884-0.716-1.6-1.6-1.6v0zM2.8 5.6c-0.884 0-1.6 0.716-1.6 1.6v0c0 0.884 0.716 1.6 1.6 1.6v0h1.437l0.928 13.934c0.155 2.315 0.174 3.693 0.938 5.034 0.602 1.054 1.507 1.904 2.597 2.432 1.39 0.672 2.768 0.6 5.088 0.6h4.426c2.32 0 3.698 0.074 5.088-0.6 1.101-0.543 1.989-1.377 2.581-2.403l0.015-0.029c0.763-1.341 0.784-2.72 0.936-5.034l0.928-13.934h1.438c0.884 0 1.6-0.716 1.6-1.6v0c0-0.884-0.716-1.6-1.6-1.6v0zM7.443 8.8h17.114l-0.917 13.722c-0.154 2.315-0.288 3.253-0.525 3.666-0.28 0.491-0.704 0.885-1.213 1.131-0.427 0.208-1.37 0.282-3.69 0.282h-4.426c-2.32 0-3.262-0.074-3.69-0.282-0.514-0.252-0.929-0.64-1.206-1.118l-0.007-0.013c-0.235-0.413-0.371-1.35-0.525-3.664zM13.066 12.2c-0.884 0-1.6 0.716-1.6 1.6v0 7.334c0 0.884 0.716 1.6 1.6 1.6v0c0.884 0 1.6-0.716 1.6-1.6v0-7.334c0-0.884-0.716-1.6-1.6-1.6v0zM18.934 12.2c-0.884 0-1.6 0.716-1.6 1.6v0 7.334c0 0.884 0.716 1.6 1.6 1.6v0c0.884 0 1.6-0.716 1.6-1.6v0-7.334c0-0.884-0.716-1.6-1.6-1.6v0z"></path>
</symbol>
<symbol id="icon-up" viewBox="0 0 32 32">
<path d="M0.632 21.389l14.147-14.189c0.168-0.168 0.352-0.286 0.547-0.357 0.197-0.071 0.408-0.106 0.632-0.106 0.226 0 0.436 0.035 0.632 0.106 0.215 0.081 0.398 0.202 0.547 0.357l0 0 14.189 14.189c0.392 0.392 0.589 0.884 0.589 1.474s-0.211 1.095-0.632 1.516c-0.369 0.389-0.89 0.632-1.468 0.632-0.002 0-0.004 0-0.006 0h0c-0.002 0-0.004 0-0.006 0-0.578 0-1.099-0.242-1.467-0.631l-0.001-0.001-12.379-12.379-12.379 12.379c-0.392 0.392-0.876 0.589-1.452 0.589s-1.075-0.211-1.496-0.632c-0.389-0.369-0.632-0.89-0.632-1.468 0-0.002 0-0.004 0-0.006v0c0-0.002 0-0.004 0-0.006 0-0.578 0.242-1.099 0.631-1.467l0.001-0.001z"></path>
</symbol>
<symbol id="icon-user" viewBox="0 0 32 32">
<path d="M4.741 30.964c0.112-6.132 5.11-11.060 11.259-11.060s11.146 4.928 11.258 11.050l0 0.011h-22.517zM16 18.297c-0.001 0-0.001 0-0.002 0-4.663 0-8.443-3.78-8.443-8.443 0-0.001 0-0.001 0-0.002v0c0-0.001 0-0.001 0-0.002 0-4.663 3.78-8.443 8.443-8.443 0.001 0 0.001 0 0.002 0h-0c0.001 0 0.001 0 0.002 0 4.663 0 8.443 3.78 8.443 8.443 0 0.001 0 0.001 0 0.002v-0c0 0.001 0 0.001 0 0.002 0 4.663-3.78 8.443-8.443 8.443-0.001 0-0.001 0-0.002 0h0z"></path>
</symbol>
</defs>
</svg>
